<svg xmlns="http://www.w3.org/2000/svg" version="1.1" xmlns:xlink="http://www.w3.org/1999/xlink" xmlns:svgjs="http://svgjs.dev/svgjs" width="1440" height="700" preserveAspectRatio="none" viewBox="0 0 1440 700"><g mask="url(&quot;#SvgjsMask1003&quot;)" fill="none"><rect width="1440" height="700" x="0" y="0" fill="#0e2a47"></rect><path d="M1369.018,419.6C1430.495,423.538,1496.284,409.607,1530.117,358.126C1566.903,302.151,1568.927,226.947,1532.616,170.662C1498.714,118.111,1431.555,108.184,1369.018,108.408C1307.004,108.63,1237.647,117.669,1207.439,171.828C1177.703,225.142,1206.751,288.414,1240.097,339.548C1269.712,384.961,1314.913,416.134,1369.018,419.6" fill="rgba(28, 83, 142, 0.4)" class="triangle-float1"></path><path d="M527.789,445.032C555.604,445.901,581.23,430.849,595.871,407.183C611.361,382.145,616.351,350.736,602.043,325.005C587.378,298.631,557.963,284.344,527.789,284.747C498.316,285.14,470.407,300.749,456.891,326.943C444.304,351.337,452.565,379.615,466.694,403.149C480.316,425.838,501.338,444.206,527.789,445.032" fill="rgba(28, 83, 142, 0.4)" class="triangle-float1"></path><path d="M336.018,592.995C401.374,591.429,459.418,554.593,492.562,498.243C526.209,441.038,533.872,370.265,500.9,312.668C467.737,254.737,402.598,219.991,336.018,224.782C276.021,229.099,238.808,282.295,207.681,333.767C174.904,387.968,137.81,449.307,165.913,506.072C196.193,567.234,267.791,594.63,336.018,592.995" fill="rgba(28, 83, 142, 0.4)" class="triangle-float2"></path><path d="M1091.6887468896248 457.44000113179385L1170.8108477969151 548.4595663284935 1261.8304129936148 469.3374654212031 1182.7083120863244 378.31790022450343z" fill="rgba(28, 83, 142, 0.4)" class="triangle-float1"></path><path d="M951.4811277410397-13.687583326983656L811.1407882987553-115.65080832651141 849.517902741512 126.65275611530072z" fill="rgba(28, 83, 142, 0.4)" class="triangle-float1"></path><path d="M648.3677264709422 276.7010709244218L790.3624595031655 296.79514464525437 745.4365820025748 179.75923244669252z" fill="rgba(28, 83, 142, 0.4)" class="triangle-float3"></path></g><defs><mask id="SvgjsMask1003"><rect width="1440" height="700" fill="#ffffff"></rect></mask><style>
                @keyframes float1 {
                    0%{transform: translate(0, 0)}
                    50%{transform: translate(-10px, 0)}
                    100%{transform: translate(0, 0)}
                }

                .triangle-float1 {
                    animation: float1 5s infinite;
                }

                @keyframes float2 {
                    0%{transform: translate(0, 0)}
                    50%{transform: translate(-5px, -5px)}
                    100%{transform: translate(0, 0)}
                }

                .triangle-float2 {
                    animation: float2 4s infinite;
                }

                @keyframes float3 {
                    0%{transform: translate(0, 0)}
                    50%{transform: translate(0, -10px)}
                    100%{transform: translate(0, 0)}
                }

                .triangle-float3 {
                    animation: float3 6s infinite;
                }
            </style></defs></svg>